<mxfile host="app.diagrams.net" modified="2023-05-04T13:39:45.740Z" agent="Mozilla/5.0 (Windows NT 10.0; Win64; x64) AppleWebKit/537.36 (KHTML, like Gecko) Chrome/112.0.0.0 Safari/537.36" etag="TbB6KdIzJ9i4j-WBPWK3" version="21.2.8" type="github">
  <diagram name="Page-1" id="2YBvvXClWsGukQMizWep">
    <mxGraphModel dx="2074" dy="1156" grid="1" gridSize="10" guides="1" tooltips="1" connect="1" arrows="1" fold="1" page="1" pageScale="1" pageWidth="850" pageHeight="1100" math="0" shadow="0">
      <root>
        <mxCell id="0" />
        <mxCell id="1" parent="0" />
        <mxCell id="aM9ryv3xv72pqoxQDRHE-1" value="Source" style="shape=umlLifeline;perimeter=lifelinePerimeter;whiteSpace=wrap;html=1;container=0;dropTarget=0;collapsible=0;recursiveResize=0;outlineConnect=0;portConstraint=eastwest;newEdgeStyle={&quot;edgeStyle&quot;:&quot;elbowEdgeStyle&quot;,&quot;elbow&quot;:&quot;vertical&quot;,&quot;curved&quot;:0,&quot;rounded&quot;:0};fillColor=#fff2cc;strokeColor=#d6b656;rounded=1;" parent="1" vertex="1">
          <mxGeometry x="40" y="40" width="100" height="530" as="geometry" />
        </mxCell>
        <mxCell id="aM9ryv3xv72pqoxQDRHE-2" value="" style="html=1;points=[];perimeter=orthogonalPerimeter;outlineConnect=0;targetShapes=umlLifeline;portConstraint=eastwest;newEdgeStyle={&quot;edgeStyle&quot;:&quot;elbowEdgeStyle&quot;,&quot;elbow&quot;:&quot;vertical&quot;,&quot;curved&quot;:0,&quot;rounded&quot;:0};fillColor=#dae8fc;strokeColor=#6c8ebf;" parent="aM9ryv3xv72pqoxQDRHE-1" vertex="1">
          <mxGeometry x="45" y="70" width="10" height="190" as="geometry" />
        </mxCell>
        <mxCell id="aM9ryv3xv72pqoxQDRHE-3" value="dispatch" style="html=1;verticalAlign=bottom;startArrow=oval;endArrow=block;startSize=8;edgeStyle=elbowEdgeStyle;elbow=vertical;curved=0;rounded=0;" parent="aM9ryv3xv72pqoxQDRHE-1" target="aM9ryv3xv72pqoxQDRHE-2" edge="1">
          <mxGeometry relative="1" as="geometry">
            <mxPoint x="-15" y="70" as="sourcePoint" />
          </mxGeometry>
        </mxCell>
        <mxCell id="aM9ryv3xv72pqoxQDRHE-4" value="" style="html=1;points=[];perimeter=orthogonalPerimeter;outlineConnect=0;targetShapes=umlLifeline;portConstraint=eastwest;newEdgeStyle={&quot;edgeStyle&quot;:&quot;elbowEdgeStyle&quot;,&quot;elbow&quot;:&quot;vertical&quot;,&quot;curved&quot;:0,&quot;rounded&quot;:0};" parent="aM9ryv3xv72pqoxQDRHE-1" vertex="1">
          <mxGeometry x="50" y="120" width="10" height="80" as="geometry" />
        </mxCell>
        <mxCell id="aM9ryv3xv72pqoxQDRHE-5" value=":Object" style="shape=umlLifeline;perimeter=lifelinePerimeter;whiteSpace=wrap;html=1;container=0;dropTarget=0;collapsible=0;recursiveResize=0;outlineConnect=0;portConstraint=eastwest;newEdgeStyle={&quot;edgeStyle&quot;:&quot;elbowEdgeStyle&quot;,&quot;elbow&quot;:&quot;vertical&quot;,&quot;curved&quot;:0,&quot;rounded&quot;:0};" parent="1" vertex="1">
          <mxGeometry x="220" y="40" width="100" height="300" as="geometry" />
        </mxCell>
        <mxCell id="aM9ryv3xv72pqoxQDRHE-6" value="" style="html=1;points=[];perimeter=orthogonalPerimeter;outlineConnect=0;targetShapes=umlLifeline;portConstraint=eastwest;newEdgeStyle={&quot;edgeStyle&quot;:&quot;elbowEdgeStyle&quot;,&quot;elbow&quot;:&quot;vertical&quot;,&quot;curved&quot;:0,&quot;rounded&quot;:0};" parent="aM9ryv3xv72pqoxQDRHE-5" vertex="1">
          <mxGeometry x="45" y="80" width="10" height="170" as="geometry" />
        </mxCell>
        <mxCell id="aM9ryv3xv72pqoxQDRHE-7" value="dispatch" style="html=1;verticalAlign=bottom;endArrow=block;edgeStyle=elbowEdgeStyle;elbow=vertical;curved=0;rounded=0;" parent="1" source="aM9ryv3xv72pqoxQDRHE-2" target="aM9ryv3xv72pqoxQDRHE-6" edge="1">
          <mxGeometry relative="1" as="geometry">
            <mxPoint x="195" y="130" as="sourcePoint" />
            <Array as="points">
              <mxPoint x="180" y="120" />
            </Array>
          </mxGeometry>
        </mxCell>
        <mxCell id="aM9ryv3xv72pqoxQDRHE-8" value="return" style="html=1;verticalAlign=bottom;endArrow=open;dashed=1;endSize=8;edgeStyle=elbowEdgeStyle;elbow=vertical;curved=0;rounded=0;" parent="1" source="aM9ryv3xv72pqoxQDRHE-6" target="aM9ryv3xv72pqoxQDRHE-2" edge="1">
          <mxGeometry relative="1" as="geometry">
            <mxPoint x="195" y="205" as="targetPoint" />
            <Array as="points">
              <mxPoint x="190" y="280" />
            </Array>
          </mxGeometry>
        </mxCell>
        <mxCell id="aM9ryv3xv72pqoxQDRHE-9" value="callback" style="html=1;verticalAlign=bottom;endArrow=block;edgeStyle=elbowEdgeStyle;elbow=vertical;curved=0;rounded=0;" parent="1" source="aM9ryv3xv72pqoxQDRHE-6" target="aM9ryv3xv72pqoxQDRHE-4" edge="1">
          <mxGeometry relative="1" as="geometry">
            <mxPoint x="175" y="160" as="sourcePoint" />
            <Array as="points">
              <mxPoint x="190" y="160" />
            </Array>
          </mxGeometry>
        </mxCell>
        <mxCell id="aM9ryv3xv72pqoxQDRHE-10" value="return" style="html=1;verticalAlign=bottom;endArrow=open;dashed=1;endSize=8;edgeStyle=elbowEdgeStyle;elbow=vertical;curved=0;rounded=0;" parent="1" source="aM9ryv3xv72pqoxQDRHE-4" target="aM9ryv3xv72pqoxQDRHE-6" edge="1">
          <mxGeometry relative="1" as="geometry">
            <mxPoint x="175" y="235" as="targetPoint" />
            <Array as="points">
              <mxPoint x="180" y="230" />
            </Array>
          </mxGeometry>
        </mxCell>
        <mxCell id="QHrnDX-K2-WMG9Iup7fY-1" value=":Object" style="shape=umlLifeline;perimeter=lifelinePerimeter;whiteSpace=wrap;html=1;container=0;dropTarget=0;collapsible=0;recursiveResize=0;outlineConnect=0;portConstraint=eastwest;newEdgeStyle={&quot;edgeStyle&quot;:&quot;elbowEdgeStyle&quot;,&quot;elbow&quot;:&quot;vertical&quot;,&quot;curved&quot;:0,&quot;rounded&quot;:0};" vertex="1" parent="1">
          <mxGeometry x="410" y="40" width="100" height="300" as="geometry" />
        </mxCell>
        <mxCell id="QHrnDX-K2-WMG9Iup7fY-2" value="" style="html=1;points=[];perimeter=orthogonalPerimeter;outlineConnect=0;targetShapes=umlLifeline;portConstraint=eastwest;newEdgeStyle={&quot;edgeStyle&quot;:&quot;elbowEdgeStyle&quot;,&quot;elbow&quot;:&quot;vertical&quot;,&quot;curved&quot;:0,&quot;rounded&quot;:0};" vertex="1" parent="QHrnDX-K2-WMG9Iup7fY-1">
          <mxGeometry x="45" y="80" width="10" height="170" as="geometry" />
        </mxCell>
        <mxCell id="QHrnDX-K2-WMG9Iup7fY-4" value="" style="endArrow=open;html=1;rounded=0;dashed=1;edgeStyle=elbowEdgeStyle;elbow=vertical;endFill=0;" edge="1" parent="1">
          <mxGeometry width="50" height="50" relative="1" as="geometry">
            <mxPoint x="277" y="190" as="sourcePoint" />
            <mxPoint x="456.5" y="190" as="targetPoint" />
          </mxGeometry>
        </mxCell>
        <mxCell id="QHrnDX-K2-WMG9Iup7fY-12" value="" style="endArrow=classic;html=1;rounded=0;" edge="1" parent="1">
          <mxGeometry relative="1" as="geometry">
            <mxPoint x="456" y="287" as="sourcePoint" />
            <mxPoint x="276" y="287" as="targetPoint" />
          </mxGeometry>
        </mxCell>
        <mxCell id="QHrnDX-K2-WMG9Iup7fY-13" value="数据返回" style="edgeLabel;resizable=0;html=1;align=center;verticalAlign=middle;" connectable="0" vertex="1" parent="QHrnDX-K2-WMG9Iup7fY-12">
          <mxGeometry relative="1" as="geometry">
            <mxPoint as="offset" />
          </mxGeometry>
        </mxCell>
        <mxCell id="QHrnDX-K2-WMG9Iup7fY-15" value="Assets" style="childLayout=tableLayout;recursiveResize=0;strokeColor=#98bf21;fillColor=#A7C942;shadow=1;" vertex="1" parent="1">
          <mxGeometry x="85" y="680" width="715" height="160" as="geometry" />
        </mxCell>
        <mxCell id="QHrnDX-K2-WMG9Iup7fY-16" style="shape=tableRow;horizontal=0;startSize=0;swimlaneHead=0;swimlaneBody=0;top=0;left=0;bottom=0;right=0;dropTarget=0;collapsible=0;recursiveResize=0;expand=0;fontStyle=0;strokeColor=inherit;fillColor=#ffffff;" vertex="1" parent="QHrnDX-K2-WMG9Iup7fY-15">
          <mxGeometry width="715" height="33" as="geometry" />
        </mxCell>
        <mxCell id="QHrnDX-K2-WMG9Iup7fY-17" value="表头" style="connectable=0;recursiveResize=0;strokeColor=inherit;fillColor=#A7C942;align=center;fontStyle=1;fontColor=#FFFFFF;html=1;" vertex="1" parent="QHrnDX-K2-WMG9Iup7fY-16">
          <mxGeometry width="237" height="33" as="geometry">
            <mxRectangle width="237" height="33" as="alternateBounds" />
          </mxGeometry>
        </mxCell>
        <mxCell id="QHrnDX-K2-WMG9Iup7fY-18" value="Title 2" style="connectable=0;recursiveResize=0;strokeColor=inherit;fillColor=#A7C942;align=center;fontStyle=1;fontColor=#FFFFFF;html=1;" vertex="1" parent="QHrnDX-K2-WMG9Iup7fY-16">
          <mxGeometry x="237" width="241" height="33" as="geometry">
            <mxRectangle width="241" height="33" as="alternateBounds" />
          </mxGeometry>
        </mxCell>
        <mxCell id="QHrnDX-K2-WMG9Iup7fY-19" value="Title 3" style="connectable=0;recursiveResize=0;strokeColor=inherit;fillColor=#A7C942;align=center;fontStyle=1;fontColor=#FFFFFF;html=1;" vertex="1" parent="QHrnDX-K2-WMG9Iup7fY-16">
          <mxGeometry x="478" width="237" height="33" as="geometry">
            <mxRectangle width="237" height="33" as="alternateBounds" />
          </mxGeometry>
        </mxCell>
        <mxCell id="QHrnDX-K2-WMG9Iup7fY-20" value="" style="shape=tableRow;horizontal=0;startSize=0;swimlaneHead=0;swimlaneBody=0;top=0;left=0;bottom=0;right=0;dropTarget=0;collapsible=0;recursiveResize=0;expand=0;fontStyle=0;strokeColor=inherit;fillColor=#ffffff;" vertex="1" parent="QHrnDX-K2-WMG9Iup7fY-15">
          <mxGeometry y="33" width="715" height="32" as="geometry" />
        </mxCell>
        <mxCell id="QHrnDX-K2-WMG9Iup7fY-21" value="Value 1" style="connectable=0;recursiveResize=0;strokeColor=inherit;fillColor=inherit;align=center;whiteSpace=wrap;html=1;" vertex="1" parent="QHrnDX-K2-WMG9Iup7fY-20">
          <mxGeometry width="237" height="32" as="geometry">
            <mxRectangle width="237" height="32" as="alternateBounds" />
          </mxGeometry>
        </mxCell>
        <mxCell id="QHrnDX-K2-WMG9Iup7fY-22" value="Value 2" style="connectable=0;recursiveResize=0;strokeColor=inherit;fillColor=inherit;align=center;whiteSpace=wrap;html=1;" vertex="1" parent="QHrnDX-K2-WMG9Iup7fY-20">
          <mxGeometry x="237" width="241" height="32" as="geometry">
            <mxRectangle width="241" height="32" as="alternateBounds" />
          </mxGeometry>
        </mxCell>
        <mxCell id="QHrnDX-K2-WMG9Iup7fY-23" value="Value 3" style="connectable=0;recursiveResize=0;strokeColor=inherit;fillColor=inherit;align=center;whiteSpace=wrap;html=1;" vertex="1" parent="QHrnDX-K2-WMG9Iup7fY-20">
          <mxGeometry x="478" width="237" height="32" as="geometry">
            <mxRectangle width="237" height="32" as="alternateBounds" />
          </mxGeometry>
        </mxCell>
        <mxCell id="QHrnDX-K2-WMG9Iup7fY-24" value="" style="shape=tableRow;horizontal=0;startSize=0;swimlaneHead=0;swimlaneBody=0;top=0;left=0;bottom=0;right=0;dropTarget=0;collapsible=0;recursiveResize=0;expand=0;fontStyle=1;strokeColor=inherit;fillColor=#EAF2D3;" vertex="1" parent="QHrnDX-K2-WMG9Iup7fY-15">
          <mxGeometry y="65" width="715" height="31" as="geometry" />
        </mxCell>
        <mxCell id="QHrnDX-K2-WMG9Iup7fY-25" value="Value 4" style="connectable=0;recursiveResize=0;strokeColor=inherit;fillColor=inherit;whiteSpace=wrap;html=1;" vertex="1" parent="QHrnDX-K2-WMG9Iup7fY-24">
          <mxGeometry width="237" height="31" as="geometry">
            <mxRectangle width="237" height="31" as="alternateBounds" />
          </mxGeometry>
        </mxCell>
        <mxCell id="QHrnDX-K2-WMG9Iup7fY-26" value="Value 5" style="connectable=0;recursiveResize=0;strokeColor=inherit;fillColor=inherit;whiteSpace=wrap;html=1;" vertex="1" parent="QHrnDX-K2-WMG9Iup7fY-24">
          <mxGeometry x="237" width="241" height="31" as="geometry">
            <mxRectangle width="241" height="31" as="alternateBounds" />
          </mxGeometry>
        </mxCell>
        <mxCell id="QHrnDX-K2-WMG9Iup7fY-27" value="Value 6" style="connectable=0;recursiveResize=0;strokeColor=inherit;fillColor=inherit;whiteSpace=wrap;html=1;" vertex="1" parent="QHrnDX-K2-WMG9Iup7fY-24">
          <mxGeometry x="478" width="237" height="31" as="geometry">
            <mxRectangle width="237" height="31" as="alternateBounds" />
          </mxGeometry>
        </mxCell>
        <mxCell id="QHrnDX-K2-WMG9Iup7fY-28" value="" style="shape=tableRow;horizontal=0;startSize=0;swimlaneHead=0;swimlaneBody=0;top=0;left=0;bottom=0;right=0;dropTarget=0;collapsible=0;recursiveResize=0;expand=0;fontStyle=0;strokeColor=inherit;fillColor=#ffffff;" vertex="1" parent="QHrnDX-K2-WMG9Iup7fY-15">
          <mxGeometry y="96" width="715" height="33" as="geometry" />
        </mxCell>
        <mxCell id="QHrnDX-K2-WMG9Iup7fY-29" value="Value 7" style="connectable=0;recursiveResize=0;strokeColor=inherit;fillColor=inherit;fontStyle=0;align=center;whiteSpace=wrap;html=1;" vertex="1" parent="QHrnDX-K2-WMG9Iup7fY-28">
          <mxGeometry width="237" height="33" as="geometry">
            <mxRectangle width="237" height="33" as="alternateBounds" />
          </mxGeometry>
        </mxCell>
        <mxCell id="QHrnDX-K2-WMG9Iup7fY-30" value="Value 8" style="connectable=0;recursiveResize=0;strokeColor=inherit;fillColor=inherit;fontStyle=0;align=center;whiteSpace=wrap;html=1;" vertex="1" parent="QHrnDX-K2-WMG9Iup7fY-28">
          <mxGeometry x="237" width="241" height="33" as="geometry">
            <mxRectangle width="241" height="33" as="alternateBounds" />
          </mxGeometry>
        </mxCell>
        <mxCell id="QHrnDX-K2-WMG9Iup7fY-31" value="Value 9" style="connectable=0;recursiveResize=0;strokeColor=inherit;fillColor=inherit;fontStyle=0;align=center;whiteSpace=wrap;html=1;" vertex="1" parent="QHrnDX-K2-WMG9Iup7fY-28">
          <mxGeometry x="478" width="237" height="33" as="geometry">
            <mxRectangle width="237" height="33" as="alternateBounds" />
          </mxGeometry>
        </mxCell>
        <mxCell id="QHrnDX-K2-WMG9Iup7fY-32" value="" style="shape=tableRow;horizontal=0;startSize=0;swimlaneHead=0;swimlaneBody=0;top=0;left=0;bottom=0;right=0;dropTarget=0;collapsible=0;recursiveResize=0;expand=0;fontStyle=1;strokeColor=inherit;fillColor=#EAF2D3;" vertex="1" parent="QHrnDX-K2-WMG9Iup7fY-15">
          <mxGeometry y="129" width="715" height="31" as="geometry" />
        </mxCell>
        <mxCell id="QHrnDX-K2-WMG9Iup7fY-33" value="Value 10" style="connectable=0;recursiveResize=0;strokeColor=inherit;fillColor=inherit;whiteSpace=wrap;html=1;" vertex="1" parent="QHrnDX-K2-WMG9Iup7fY-32">
          <mxGeometry width="237" height="31" as="geometry">
            <mxRectangle width="237" height="31" as="alternateBounds" />
          </mxGeometry>
        </mxCell>
        <mxCell id="QHrnDX-K2-WMG9Iup7fY-34" value="Value 11" style="connectable=0;recursiveResize=0;strokeColor=inherit;fillColor=inherit;whiteSpace=wrap;html=1;" vertex="1" parent="QHrnDX-K2-WMG9Iup7fY-32">
          <mxGeometry x="237" width="241" height="31" as="geometry">
            <mxRectangle width="241" height="31" as="alternateBounds" />
          </mxGeometry>
        </mxCell>
        <mxCell id="QHrnDX-K2-WMG9Iup7fY-35" value="Value 12" style="connectable=0;recursiveResize=0;strokeColor=inherit;fillColor=inherit;whiteSpace=wrap;html=1;" vertex="1" parent="QHrnDX-K2-WMG9Iup7fY-32">
          <mxGeometry x="478" width="237" height="31" as="geometry">
            <mxRectangle width="237" height="31" as="alternateBounds" />
          </mxGeometry>
        </mxCell>
      </root>
    </mxGraphModel>
  </diagram>
</mxfile>
